<svg xmlns="http://www.w3.org/2000/svg" width="16" height="16" version="1.2" viewBox="0 0 16 16"><path d="M9.284.177q2.77-.567 4.315.683.735.605.967 1.739.257 1.146-.245 2.55-.22.67-.735.992-.515.335-1.082.386-.541.04-.992-.141-.438-.18-.476-.528l-.168-.387q-.476-.695-1.61-.18-.992.45-1.97 1.546-1.044 1.172-1.353 2.125-.348 1.044-.348 1.366-.039.747.515 1.327.812.515 1.623.476.825-.064 1.456-.373.644-.323 1.044-.735.412-.4.4-.58.064-.115.115-.231.065-.103.103-.232h.039q.116-.01.05 0-.05 0 .064.028l.116.038q-.953.85-1.842.348-.335-.219-.618-.45-.27-.246-.49-.22-.438-.232-.193-.914.09-.27.335-.503.27-.257.683-.347 1.932-.838 3.568-.387.734.194 1.018.8.283.579.245 1.3-.039.734-.335 1.494-.27.748-.593 1.211-.335.451-.927 1.07-.58.618-1.469 1.198-2.19 1.404-4.676 1.352-3.62-.064-4.277-2.963-.206-.927-.193-2.087.206-3.349 2.01-6.273.875-1.391 2.344-2.744.927-.824 2.087-1.275.618-.258 1.481-.49Z"/></svg>
